<svg aria-hidden="true" style="position: absolute; width: 0; height: 0; overflow: hidden;" version="1.1" xmlns="http://www.w3.org/2000/svg" xmlns:xlink="http://www.w3.org/1999/xlink">
<defs>
<symbol id="icon-logo-platform" viewBox="0 0 186 32">
<path d="M2.462 2.462h27.077v27.077h-12.923v-2.462h10.462v-22.154h-22.154v12.308h-2.462v-14.769z"></path>
<path d="M13.538 11.079c3.159-0.066 4.415 0.893 4.765 1.598 0.367 0.741 0.136 2.098-1.51 3.347l-0.98 0.744 1.488 1.961 0.98-0.744c2.091-1.587 3.353-4.129 2.226-6.401-1.106-2.229-4.081-3.259-8.307-2.895l-1.125 0.097v15.83h2.462v-13.536z"></path>
<path d="M162.769 11.129h2.49v0.841c0.623-0.381 1.228-0.645 1.818-0.791 0.594-0.151 1.175-0.227 1.742-0.227 0.791 0 1.518 0.126 2.18 0.379 0.661 0.252 1.228 0.634 1.698 1.144 0.366-0.28 0.724-0.516 1.077-0.707 0.354-0.196 0.708-0.353 1.061-0.471 0.353-0.123 0.713-0.21 1.077-0.261 0.364-0.056 0.74-0.084 1.127-0.084 0.814 0 1.551 0.112 2.213 0.337 0.661 0.219 1.225 0.547 1.691 0.984 0.47 0.437 0.832 0.984 1.084 1.641 0.258 0.651 0.388 1.405 0.388 2.263v4.88h-2.482v-4.476c0-0.544-0.078-1.029-0.235-1.456-0.151-0.432-0.368-0.794-0.647-1.085-0.276-0.297-0.607-0.522-0.993-0.673-0.382-0.157-0.802-0.236-1.262-0.236-0.254 0-0.511 0.025-0.774 0.076-0.265 0.045-0.522 0.118-0.774 0.219-0.247 0.101-0.48 0.23-0.699 0.387-0.218 0.151-0.409 0.331-0.572 0.538v6.705h-2.481v-4.476c0-0.544-0.079-1.029-0.236-1.456-0.151-0.432-0.367-0.794-0.647-1.085-0.274-0.297-0.608-0.522-1.001-0.673-0.388-0.157-0.814-0.236-1.279-0.236-0.287 0-0.576 0.031-0.868 0.093-0.286 0.056-0.564 0.137-0.832 0.244-0.263 0.107-0.513 0.236-0.75 0.387-0.23 0.152-0.437 0.323-0.623 0.513v6.689h-2.49v-9.928z"></path>
<path d="M154.053 11.129h2.49v1.43c0.55-0.409 1.131-0.763 1.742-1.060 0.612-0.297 1.221-0.524 1.826-0.681l0.732 2.28c-0.96 0.095-1.804 0.311-2.533 0.648-0.724 0.331-1.312 0.799-1.767 1.405v5.906h-2.49v-9.928z"></path>
<path d="M139.188 16.093c0-0.712 0.143-1.38 0.428-2.002 0.292-0.623 0.704-1.167 1.237-1.632 0.539-0.466 1.186-0.833 1.943-1.102 0.763-0.269 1.618-0.404 2.566-0.404 0.949 0 1.801 0.135 2.559 0.404 0.762 0.269 1.41 0.637 1.943 1.102 0.538 0.465 0.95 1.010 1.237 1.632 0.292 0.623 0.437 1.29 0.437 2.002s-0.145 1.38-0.437 2.002c-0.287 0.623-0.699 1.167-1.237 1.632-0.533 0.466-1.182 0.833-1.943 1.102-0.758 0.269-1.61 0.404-2.559 0.404-0.948 0-1.803-0.135-2.566-0.404-0.757-0.269-1.404-0.637-1.943-1.102-0.533-0.465-0.945-1.010-1.237-1.632-0.286-0.623-0.428-1.29-0.428-2.002zM141.804 16.093c0 0.398 0.079 0.777 0.235 1.136 0.162 0.353 0.396 0.668 0.699 0.942 0.308 0.269 0.681 0.485 1.119 0.648 0.443 0.157 0.945 0.236 1.505 0.236 0.561 0 1.061-0.079 1.498-0.236 0.443-0.163 0.816-0.379 1.119-0.648 0.309-0.275 0.542-0.589 0.699-0.942 0.162-0.359 0.244-0.737 0.244-1.136s-0.081-0.777-0.244-1.136c-0.158-0.359-0.39-0.673-0.699-0.942-0.303-0.275-0.676-0.491-1.119-0.648-0.437-0.163-0.937-0.244-1.498-0.244-0.56 0-1.062 0.081-1.505 0.244-0.438 0.157-0.811 0.373-1.119 0.648-0.303 0.269-0.537 0.583-0.699 0.942-0.156 0.359-0.235 0.738-0.235 1.136z"></path>
<path d="M132.238 12.996h-1.7v-1.868h1.7c0-0.673 0.096-1.27 0.287-1.792 0.191-0.527 0.465-0.97 0.825-1.329 0.364-0.365 0.805-0.642 1.321-0.833 0.522-0.191 1.108-0.286 1.759-0.286 0.454 0 0.9 0.045 1.338 0.135 0.437 0.084 0.823 0.208 1.161 0.37l-0.884 2.095c-0.134-0.079-0.325-0.151-0.572-0.219-0.241-0.067-0.507-0.101-0.799-0.101-0.572 0-1.035 0.163-1.388 0.488-0.348 0.32-0.533 0.81-0.555 1.472h3.138v1.868h-3.138v8.060h-2.491v-8.060z"></path>
<path d="M124.052 12.996h-2.398v-1.868h2.398v-3.088h2.49v3.088h2.399v1.868h-2.399v8.060h-2.49v-8.060z"></path>
<path d="M107.764 17.927c0-0.477 0.104-0.911 0.311-1.304s0.519-0.729 0.934-1.010c0.415-0.286 0.931-0.505 1.548-0.656 0.623-0.157 1.346-0.236 2.171-0.236 0.611 0 1.254 0.045 1.927 0.135 0.679 0.090 1.377 0.227 2.095 0.412-0.028-0.314-0.123-0.603-0.286-0.867-0.163-0.269-0.39-0.499-0.682-0.69-0.286-0.196-0.634-0.348-1.043-0.454-0.404-0.107-0.864-0.16-1.38-0.16-0.281 0-0.589 0.017-0.926 0.050s-0.684 0.084-1.043 0.152c-0.359 0.067-0.715 0.151-1.069 0.252-0.348 0.101-0.673 0.222-0.976 0.362l-0.757-2.044c0.376-0.135 0.777-0.258 1.203-0.37 0.432-0.112 0.872-0.208 1.321-0.286 0.449-0.084 0.897-0.149 1.346-0.194s0.883-0.067 1.304-0.067c1.857 0 3.236 0.474 4.139 1.422s1.355 2.401 1.355 4.358v4.325h-2.49v-0.934c-0.258 0.151-0.541 0.295-0.85 0.429-0.303 0.135-0.634 0.252-0.993 0.353s-0.746 0.179-1.161 0.236c-0.409 0.062-0.844 0.093-1.304 0.093-0.774 0-1.456-0.084-2.044-0.252-0.583-0.168-1.071-0.401-1.464-0.698s-0.69-0.645-0.892-1.043c-0.196-0.404-0.295-0.841-0.295-1.313zM110.389 17.843c0 0.163 0.042 0.32 0.126 0.471 0.084 0.146 0.219 0.278 0.404 0.395 0.185 0.112 0.421 0.205 0.707 0.278 0.292 0.067 0.642 0.101 1.052 0.101 0.437 0 0.861-0.039 1.27-0.118s0.791-0.182 1.144-0.311c0.353-0.129 0.673-0.278 0.959-0.446s0.524-0.342 0.715-0.522v-0.437c-0.381-0.107-0.76-0.196-1.136-0.269-0.37-0.073-0.726-0.129-1.069-0.168-0.337-0.045-0.656-0.076-0.959-0.093-0.297-0.017-0.558-0.025-0.782-0.025-0.466 0-0.853 0.031-1.161 0.093s-0.558 0.146-0.749 0.252c-0.191 0.101-0.325 0.222-0.404 0.362s-0.118 0.286-0.118 0.438z"></path>
<path d="M102.548 7.099h2.49v13.958h-2.49v-13.958z"></path>
<path d="M90.5 25.112h-2.49v-13.983h2.49v0.934c0.219-0.151 0.477-0.294 0.774-0.429s0.617-0.252 0.959-0.353c0.342-0.101 0.695-0.179 1.060-0.236 0.365-0.062 0.729-0.093 1.094-0.093 0.841 0 1.613 0.123 2.314 0.37 0.707 0.247 1.313 0.595 1.817 1.043s0.897 0.987 1.178 1.615c0.286 0.623 0.429 1.313 0.429 2.070 0 0.791-0.149 1.506-0.446 2.145-0.297 0.634-0.71 1.178-1.237 1.632-0.522 0.449-1.144 0.796-1.868 1.043-0.718 0.241-1.498 0.362-2.339 0.362-0.359 0-0.715-0.023-1.069-0.067-0.348-0.045-0.684-0.107-1.010-0.185-0.32-0.079-0.623-0.171-0.909-0.278-0.28-0.112-0.53-0.233-0.749-0.362v4.77zM90.5 17.935c0.252 0.202 0.519 0.373 0.799 0.513s0.567 0.255 0.858 0.345c0.292 0.090 0.586 0.157 0.883 0.202 0.297 0.039 0.586 0.059 0.867 0.059 0.572 0 1.080-0.076 1.523-0.227 0.449-0.157 0.825-0.37 1.127-0.639 0.309-0.269 0.544-0.586 0.707-0.951s0.244-0.76 0.244-1.186c0-0.398-0.081-0.774-0.244-1.127-0.157-0.353-0.387-0.662-0.69-0.926-0.297-0.269-0.659-0.479-1.085-0.631-0.421-0.157-0.895-0.236-1.422-0.236-0.337 0-0.673 0.034-1.010 0.101-0.337 0.062-0.662 0.151-0.976 0.269-0.308 0.118-0.6 0.261-0.875 0.429-0.269 0.168-0.505 0.356-0.707 0.564v3.441z"></path>
<path d="M67.481 16.059c0-0.673 0.137-1.315 0.412-1.927 0.275-0.617 0.67-1.161 1.186-1.632s1.147-0.847 1.893-1.127c0.752-0.28 1.604-0.421 2.558-0.421 0.948 0 1.8 0.143 2.558 0.429 0.763 0.28 1.408 0.667 1.935 1.161 0.533 0.494 0.939 1.074 1.22 1.742 0.286 0.667 0.429 1.383 0.429 2.145 0 0.095-0.003 0.199-0.008 0.311 0 0.107-0.006 0.205-0.017 0.294h-9.389c0.107 0.297 0.278 0.569 0.513 0.816 0.241 0.247 0.541 0.46 0.9 0.639s0.774 0.32 1.245 0.421c0.471 0.095 0.993 0.143 1.565 0.143s1.141-0.059 1.708-0.177c0.567-0.123 1.108-0.278 1.624-0.463l0.841 1.901c-0.325 0.151-0.656 0.286-0.993 0.404-0.331 0.112-0.679 0.207-1.043 0.286-0.359 0.073-0.738 0.129-1.136 0.168-0.393 0.039-0.808 0.059-1.245 0.059-1.116 0-2.095-0.135-2.936-0.404s-1.545-0.637-2.112-1.102c-0.567-0.465-0.993-1.012-1.279-1.641s-0.429-1.304-0.429-2.028zM77.030 15.091c-0.090-0.275-0.23-0.53-0.421-0.766-0.185-0.241-0.418-0.449-0.698-0.623-0.28-0.179-0.606-0.32-0.976-0.421s-0.777-0.152-1.22-0.152c-0.471 0-0.9 0.053-1.287 0.16s-0.726 0.25-1.018 0.429c-0.292 0.179-0.536 0.387-0.732 0.623-0.191 0.236-0.331 0.485-0.421 0.749h6.773z"></path>
<path d="M53.615 7.107h2.49v4.779c0.522-0.286 1.102-0.513 1.742-0.681 0.645-0.168 1.321-0.252 2.028-0.252 0.819 0 1.554 0.121 2.204 0.362 0.656 0.241 1.211 0.589 1.666 1.043 0.454 0.449 0.802 0.996 1.043 1.641 0.247 0.645 0.37 1.371 0.37 2.179v4.88h-2.482v-4.779c0-0.471-0.076-0.9-0.227-1.287-0.151-0.393-0.373-0.729-0.665-1.010s-0.648-0.496-1.069-0.648c-0.415-0.157-0.886-0.236-1.413-0.236-0.634 0-1.223 0.101-1.767 0.303s-1.021 0.457-1.43 0.766v6.891h-2.49v-13.95z"></path>
<path d="M43.552 10.245h-4.855v-2.339h12.376v2.339h-4.855v10.811h-2.667v-10.811z"></path>
<symbol id="icon-movie" viewBox="0 0 32 32">
<path d="M8.811 6.153c-0.666-0.363-1.478 0.12-1.478 0.878v17.936c0 0.759 0.812 1.241 1.478 0.878l16.482-8.968c0.696-0.379 0.696-1.378 0-1.757l-16.482-8.968zM5.333 7.032c0-2.276 2.435-3.723 4.434-2.635l16.482 8.968c2.088 1.136 2.088 4.134 0 5.27l-16.482 8.968c-1.999 1.088-4.434-0.359-4.434-2.635v-17.936z"></path>
</symbol>
<symbol id="icon-home" viewBox="0 0 32 32">
<path d="M4 9.684c0-3.139 2.545-5.684 5.684-5.684h12.632c3.139 0 5.684 2.545 5.684 5.684v11.368c0 3.139-2.545 5.684-5.684 5.684h-12.632c-3.139 0-5.684-2.545-5.684-5.684v-11.368zM9.684 5.895c-2.093 0-3.789 1.697-3.789 3.789v11.368c0 2.093 1.697 3.789 3.789 3.789h12.632c2.093 0 3.789-1.697 3.789-3.789v-11.368c0-2.093-1.697-3.789-3.789-3.789h-12.632z"></path>
</symbol>
<symbol id="icon-tasks" viewBox="0 0 32 32">
<path d="M17.667 11.333c-0.552 0-1 0.448-1 1s0.448 1 1 1h4.667c0.552 0 1-0.448 1-1s-0.448-1-1-1h-4.667zM16.667 19.667c0-0.552 0.448-1 1-1h4.666c0.552 0 1 0.448 1 1s-0.448 1-1 1h-4.666c-0.552 0-1-0.448-1-1zM14.374 10.293c0.391 0.391 0.391 1.024 0 1.414l-2.667 2.667c-0.391 0.391-1.024 0.391-1.414 0l-1.333-1.333c-0.391-0.391-0.391-1.024 0-1.414s1.024-0.391 1.414 0l0.626 0.626 1.96-1.96c0.391-0.391 1.024-0.391 1.414 0zM14.374 19.040c0.391-0.391 0.391-1.024 0-1.414s-1.024-0.391-1.414 0l-1.96 1.959-0.626-0.626c-0.391-0.391-1.024-0.391-1.414 0s-0.391 1.024 0 1.414l1.333 1.333c0.391 0.391 1.024 0.391 1.414 0l2.667-2.667zM7 4c-1.657 0-3 1.343-3 3v18c0 1.657 1.343 3 3 3h18c1.657 0 3-1.343 3-3v-18c0-1.657-1.343-3-3-3h-18zM6 7c0-0.552 0.448-1 1-1h18c0.552 0 1 0.448 1 1v18c0 0.552-0.448 1-1 1h-18c-0.552 0-1-0.448-1-1v-18z"></path>
</symbol>
<symbol id="icon-gallery" viewBox="0 0 32 32">
<path d="M19.071 17.252l0.152 0.152 6.223 6.529v-5.99c0-0.46 0.373-0.833 0.833-0.833 0.422 0 0.771 0.313 0.826 0.72l0.008 0.113v6.114c0 1.625-1.269 2.954-2.869 3.050l-0.186 0.006h-6.111c-0.46 0-0.833-0.373-0.833-0.833 0-0.422 0.314-0.771 0.72-0.826l0.113-0.008 5.871-0-6.202-6.508c-0.025-0.026-0.050-0.051-0.076-0.076-0.842-0.802-2.149-0.813-3.004-0.056l-0.138 0.133-6.197 6.507 5.858 0 0.113 0.008c0.407 0.055 0.72 0.404 0.72 0.826s-0.314 0.771-0.72 0.826l-0.113 0.008-6.297-0.006c-1.537-0.092-2.767-1.321-2.863-2.856l-0.006-0.193v-6.114l0.008-0.113c0.055-0.407 0.404-0.72 0.826-0.72s0.771 0.313 0.826 0.72l0.008 0.113v6.004l6.23-6.542c1.693-1.778 4.506-1.847 6.283-0.154zM14.057 4.888c0.46 0 0.833 0.373 0.833 0.833 0 0.422-0.314 0.771-0.72 0.826l-0.113 0.008h-6.111c-0.719 0-1.311 0.547-1.382 1.247l-0.007 0.142v6.114c0 0.46-0.373 0.833-0.833 0.833-0.422 0-0.771-0.314-0.826-0.72l-0.008-0.113v-6.114c0-1.625 1.269-2.954 2.869-3.050l0.186-0.006h6.111zM24.057 4.888l0.186 0.006c1.537 0.092 2.767 1.321 2.863 2.856l0.006 0.194v6.114l-0.008 0.113c-0.055 0.407-0.404 0.72-0.826 0.72s-0.771-0.314-0.826-0.72l-0.008-0.113v-6.114l-0.007-0.142c-0.066-0.654-0.586-1.173-1.24-1.24l-0.142-0.007h-6.111l-0.113-0.008c-0.407-0.055-0.72-0.404-0.72-0.826s0.314-0.771 0.72-0.826l0.113-0.008h6.111zM20.45 9.332c1.227 0 2.222 0.995 2.222 2.222s-0.995 2.222-2.222 2.222c-1.227 0-2.222-0.995-2.222-2.222s0.995-2.222 2.222-2.222z"></path>
</symbol>
<symbol id="icon-burger" viewBox="0 0 32 32">
<path d="M3.2 7.6c0-0.663 0.537-1.2 1.2-1.2h23.2c0.663 0 1.2 0.537 1.2 1.2s-0.537 1.2-1.2 1.2h-23.2c-0.663 0-1.2-0.537-1.2-1.2zM3.2 15.6c0-0.663 0.537-1.2 1.2-1.2h23.2c0.663 0 1.2 0.537 1.2 1.2s-0.537 1.2-1.2 1.2h-23.2c-0.663 0-1.2-0.537-1.2-1.2zM4.4 22.4c-0.663 0-1.2 0.537-1.2 1.2s0.537 1.2 1.2 1.2h23.2c0.663 0 1.2-0.537 1.2-1.2s-0.537-1.2-1.2-1.2h-23.2z"></path>
</symbol>
<symbol id="icon-arrow-circle" viewBox="0 0 32 32">
<path d="M9.67 22.364c3.575 3.561 9.361 3.55 12.922-0.025s3.55-9.361-0.025-12.922c-3.576-3.561-9.361-3.55-12.922 0.025s-3.55 9.361 0.025 12.922zM19.832 15.398c0.267-0.268 0.701-0.269 0.969-0.002s0.269 0.701 0.002 0.969l-4.191 4.208c-0.267 0.268-0.701 0.269-0.969 0.002l-4.208-4.191c-0.268-0.267-0.269-0.701-0.002-0.969s0.701-0.269 0.969-0.002l3.069 3.057-0.046-6.775c-0.003-0.379 0.302-0.687 0.681-0.69s0.687 0.302 0.69 0.681l0.046 6.716 2.991-3.003z"></path>
</symbol>
<symbol id="icon-bookmark" viewBox="0 0 18 32">
<path stroke-linejoin="miter" stroke-linecap="butt" stroke-miterlimit="4" stroke-width="0.6275" d="M0.627 0.941v30.384c0 0.267 0.312 0.412 0.516 0.24l8.126-6.857c0.12-0.101 0.296-0.098 0.413 0.007l7.534 6.812c0.202 0.182 0.524 0.039 0.524-0.233v-30.352c0-0.173-0.14-0.314-0.314-0.314h-16.485c-0.173 0-0.314 0.14-0.314 0.314z"></path>
</symbol>
<symbol id="icon-paws" viewBox="0 0 37 32">
<path d="M0.176 31.707c5.311 0.852 9.256-0.155 11.834-3.019s3.868-7.084 3.868-12.658v-15.794h-15.702v15.794h8.082c0.423 2.787 0.039 5.052-1.155 6.794-1.232 1.742-3.233 2.497-6.004 2.265l-0.924 6.619zM21.074 31.707c5.311 0.852 9.256-0.155 11.834-3.019s3.868-7.084 3.868-12.658v-15.794h-15.702v15.794h8.082c0.423 2.787 0.038 5.052-1.155 6.794-1.232 1.742-3.233 2.497-6.004 2.265l-0.924 6.619z"></path>
</symbol>
<symbol id="icon-arrow" viewBox="0 0 34 32">
<path d="M19.028 5.129c-0.482-0.455-1.241-0.434-1.696 0.047s-0.434 1.241 0.047 1.696l8.382 7.928h-20.358c-0.663 0-1.2 0.537-1.2 1.2s0.537 1.2 1.2 1.2h20.361l-8.386 7.932c-0.482 0.455-0.503 1.215-0.047 1.696s1.215 0.503 1.696 0.047l10.268-9.711c0.266-0.252 0.426-0.572 0.48-0.906 0.018-0.083 0.028-0.17 0.028-0.258 0-0.092-0.010-0.182-0.030-0.268-0.056-0.329-0.215-0.644-0.478-0.893l-10.267-9.711z"></path>
</symbol>
<symbol id="icon-empty" viewBox="0 0 32 32">
<path fill="#d6d6d6" style="fill: var(--color1, #d6d6d6)" opacity="0.25" d="M21.52 15.483c-0.14 0-0.27-0.071-0.345-0.188s-0.086-0.265-0.028-0.392c0.329-0.731 1.131-1.248 2.066-1.248 0.316 0 0.617 0.059 0.889 0.165 0.164 0.063 0.349 0.015 0.462-0.119 0.502-0.596 1.3-0.982 2.199-0.982 1.064 0 1.988 0.542 2.445 1.334 0.099 0.172 0.307 0.249 0.494 0.183 0.191-0.067 0.399-0.104 0.616-0.104 0.6 0 1.128 0.28 1.429 0.702 0.090 0.125 0.102 0.29 0.032 0.427s-0.211 0.223-0.365 0.223c-1.93 0-8.054 0-9.891 0z"></path>
<path fill="#d6d6d6" style="fill: var(--color1, #d6d6d6)" opacity="0.25" d="M0.52 22.277c-0.133 0-0.258-0.064-0.335-0.173s-0.097-0.247-0.053-0.373c0.356-1.011 1.413-1.746 2.662-1.746 0.419 0 0.817 0.083 1.175 0.232 0.168 0.069 0.361 0.020 0.476-0.121 0.626-0.777 1.646-1.283 2.798-1.283 1.364 0 2.544 0.71 3.102 1.74 0.099 0.181 0.316 0.261 0.509 0.186 0.258-0.1 0.544-0.156 0.843-0.156 0.85 0 1.583 0.448 1.921 1.093 0.067 0.127 0.062 0.28-0.012 0.403s-0.208 0.198-0.351 0.198c-2.232 0-10.585 0-12.733 0z"></path>
<path fill="#d6d6d6" style="fill: var(--color1, #d6d6d6)" opacity="0.25" d="M15.192 12.384c-0.141 0-0.272-0.072-0.347-0.192s-0.084-0.269-0.023-0.396c0.324-0.684 1.082-1.165 1.965-1.165 0.299 0 0.584 0.055 0.842 0.155 0.163 0.062 0.347 0.014 0.46-0.119 0.481-0.567 1.243-0.933 2.1-0.933 1.015 0 1.897 0.514 2.337 1.267 0.099 0.17 0.304 0.246 0.49 0.182 0.18-0.062 0.375-0.096 0.579-0.096 0.558 0 1.050 0.252 1.342 0.636 0.094 0.124 0.11 0.291 0.041 0.431s-0.212 0.228-0.368 0.228c-1.877 0-7.635 0-9.417 0z"></path>
<path fill="#d6d6d6" style="fill: var(--color1, #d6d6d6)" opacity="0.25" d="M3.473 17.99c-0.154 0-0.295-0.086-0.365-0.223s-0.059-0.301 0.031-0.427c0.284-0.401 0.785-0.667 1.354-0.667 0.204 0 0.398 0.034 0.578 0.096 0.156 0.054 0.329 0.010 0.44-0.113 0.363-0.401 0.917-0.657 1.538-0.657 0.737 0 1.38 0.361 1.721 0.896 0.098 0.154 0.286 0.226 0.462 0.174 0.118-0.035 0.245-0.053 0.376-0.053 0.278 0 0.534 0.083 0.739 0.224 0.148 0.102 0.213 0.288 0.16 0.46s-0.212 0.289-0.392 0.289c-1.547 0-5.219 0-6.641 0z"></path>
<path fill="#fff" style="fill: var(--color2, #fff)" opacity="0.5" d="M23.233 13.988c0-0.53-0.266-1.025-0.708-1.317-1.293-0.855-4.039-2.671-5.495-3.634-0.578-0.382-1.328-0.382-1.906 0-1.456 0.963-4.201 2.778-5.495 3.634-0.442 0.292-0.708 0.787-0.708 1.317 0 1.699 0 5.54 0 7.715 0 0.872 0.707 1.579 1.579 1.579 2.754 0 8.4 0 11.153 0 0.872 0 1.579-0.707 1.579-1.579 0-2.175 0-6.016 0-7.715z"></path>
<path fill="#a6a6a6" style="fill: var(--color3, #a6a6a6)" opacity="0.5" d="M23.407 13.981c0-0.591-0.296-1.142-0.789-1.468-1.295-0.856-4.039-2.671-5.495-3.634-0.639-0.422-1.467-0.422-2.105 0-1.457 0.963-4.201 2.778-5.496 3.634-0.493 0.326-0.789 0.877-0.789 1.468 0 1.699 0 5.54 0 7.715 0 0.972 0.789 1.76 1.76 1.76 2.754 0 8.4 0 11.153 0 0.971 0 1.76-0.788 1.76-1.76v-7.715zM23.046 13.981v7.715c0 0.772-0.626 1.399-1.398 1.399h-11.153c-0.772 0-1.398-0.626-1.398-1.399 0-2.175 0-6.016 0-7.715 0-0.47 0.235-0.908 0.628-1.167 1.293-0.855 4.039-2.671 5.495-3.634 0.518-0.342 1.188-0.342 1.706 0 1.456 0.963 4.201 2.778 5.495 3.634 0.393 0.259 0.628 0.697 0.628 1.167z"></path>
<path fill="#d6d6d6" style="fill: var(--color1, #d6d6d6)" opacity="0.5" d="M23.060 13.897c0 0.625-0.299 1.213-0.803 1.582-1.834 1.339-5.927 4.328-6.214 4.537l-5.947 2.62c-0.297 0.131-0.645 0.060-0.868-0.177-0.151-0.161-0.132 0.305-0.132 0.305-0.1-0.362-0.181-0.281-0.181-0.181s0.081 0.181 0.181 0.181c0 0-0.066 0.013-0.132-0.057 0.327 0.349 0.839 0.453 1.277 0.26 1.634-0.72 5.965-2.628 5.965-2.628 0.012-0.005 0.023-0.012 0.034-0.019 0 0 4.328-3.161 6.229-4.549 0.598-0.437 0.952-1.133 0.952-1.874 0-0.17-0.181 0.181-0.181 0.181-0.1-0.361-0.181-0.28-0.181-0.181zM23.061 13.908c0.003 0.059 0.028 0.097 0.058 0.122-0.034-0.031-0.055-0.074-0.058-0.122z"></path>
<path fill="#a6a6a6" style="fill: var(--color3, #a6a6a6)" opacity="0.5" d="M8.734 13.897c0 0.741 0.354 1.437 0.953 1.873 1.904 1.388 6.242 4.55 6.242 4.55 0.010 0.008 0.022 0.014 0.034 0.019 0 0 4.321 1.907 5.952 2.627 0.438 0.193 0.949 0.089 1.277-0.26-0.065 0.070-0.132 0.057-0.132 0.057-0.083-0.302-0.154-0.295-0.174-0.227 0.004-0.025 0.017-0.050 0.042-0.077-0.222 0.236-0.569 0.306-0.866 0.175-1.57-0.693-5.632-2.486-5.934-2.619-0.286-0.208-4.389-3.199-6.227-4.538-0.505-0.368-0.804-0.956-0.804-1.581 0-0.17-0.181 0.181-0.181 0.181-0.1-0.361-0.181-0.28-0.181-0.181zM8.735 13.908c0.003 0.059 0.028 0.097 0.058 0.122-0.034-0.031-0.055-0.074-0.058-0.122z"></path>
<path fill="#e5e5e5" style="fill: var(--color4, #e5e5e5)" opacity="0.5" d="M16.552 15.335l-0.004-1.252c-0.001-0.254-0.208-0.46-0.462-0.459s-0.46 0.208-0.459 0.462l0.004 1.252c0.001 0.254 0.208 0.46 0.462 0.459s0.46-0.208 0.459-0.462z"></path>
<path fill="#e5e5e5" style="fill: var(--color4, #e5e5e5)" opacity="0.5" d="M18.174 16.334l0.877-0.842c0.183-0.176 0.189-0.468 0.013-0.651s-0.468-0.189-0.651-0.013l-0.877 0.842c-0.183 0.176-0.189 0.468-0.013 0.651s0.468 0.189 0.651 0.013z"></path>
<path fill="#e5e5e5" style="fill: var(--color4, #e5e5e5)" opacity="0.5" d="M14.626 15.67l-0.883-0.836c-0.184-0.175-0.476-0.167-0.651 0.018s-0.167 0.476 0.017 0.651l0.883 0.836c0.184 0.175 0.476 0.167 0.651-0.017s0.167-0.476-0.017-0.651z"></path>
</symbol>
</defs>
</svg>
